Coordinates
version=1
nRows=13
nColumns=40
inDegrees=yes

Units are S.I. units (second, meters, Newtons, ...)
Angles are in degrees.

endheader
time	pelvis_tilt	pelvis_list	pelvis_rotation	pelvis_tx	pelvis_ty	pelvis_tz	hip_flexion_r	hip_adduction_r	hip_rotation_r	knee_angle_r	knee_angle_r_beta	ankle_angle_r	subtalar_angle_r	mtp_angle_r	hip_flexion_l	hip_adduction_l	hip_rotation_l	knee_angle_l	knee_angle_l_beta	ankle_angle_l	subtalar_angle_l	mtp_angle_l	lumbar_extension	lumbar_bending	lumbar_rotation	arm_flex_r	arm_add_r	arm_rot_r	elbow_flex_r	pro_sup_r	wrist_flex_r	wrist_dev_r	arm_flex_l	arm_add_l	arm_rot_l	elbow_flex_l	pro_sup_l	wrist_flex_l	wrist_dev_l
      3.84000000	     -5.51546017	     -4.75235811	      7.31916536	      0.80885169	      0.91925919	      0.45261361	      2.20960408	      3.78545824	    -17.77973129	     12.21283171	     12.21283171	     17.59191289	     -0.25931734	     -2.93526066	     31.49681816	     -4.29913415	     -3.61409432	     16.11283730	     16.11283730	      4.08451490	     -7.07826401	      4.13704267	     -7.42545872	      5.00378352	      3.65186565	     65.90684281	    -17.84008247	      0.89711587	    101.32304489	     44.07235083	      0.00000000	      0.00000000	      6.89253163	    -11.12881705	     15.25287043	     50.68961008	     45.97210135	      0.00000000	      0.00000000
      3.85185714	     -5.51842868	     -4.74031672	      7.14863081	      0.81067664	      0.91801634	      0.45135187	      1.60679261	      3.73767831	    -17.56821005	     12.28637978	     12.28637978	     17.99750704	     -0.19318614	     -2.98882311	     31.24477697	     -4.31495242	     -4.04119683	     16.70472893	     16.70472893	      3.47979728	     -7.50072482	      4.18170726	     -7.20642211	      4.89983034	      3.79680934	     65.30307735	    -17.78509265	      0.98187646	    101.16043333	     44.07674063	      0.00000000	      0.00000000	      6.58175866	    -11.13786894	     15.21431769	     50.65016951	     45.97320732	      0.00000000	      0.00000000
      3.86371429	     -5.49790029	     -4.74462937	      7.01898110	      0.81251818	      0.91679771	      0.44996072	      1.01608587	      3.68400830	    -17.41970174	     12.43713452	     12.43713452	     18.42601353	     -0.10831058	     -2.92720190	     31.08538312	     -4.33380422	     -4.18957273	     17.54995248	     17.54995248	      2.86302624	     -8.12678462	      3.97681247	     -6.98507063	      4.78713125	      3.91999613	     64.44403376	    -17.75677846	      0.96807662	    100.83662762	     44.09106333	      0.00000000	      0.00000000	      6.42367714	    -11.14152333	     15.07728230	     50.80454251	     45.98713122	      0.00000000	      0.00000000
      3.87557143	     -5.47925178	     -4.81389521	      6.85182444	      0.81435733	      0.91565585	      0.44847333	      0.62572150	      3.60397247	    -17.38462555	     13.03896038	     13.03896038	     19.57856113	      0.33882664	     -0.86794126	     30.77859047	     -4.34532034	     -3.87434148	     18.02410153	     18.02410153	      0.96320141	     -9.77568321	      0.99494097	     -6.80566964	      4.74666383	      3.72068207	     63.64952935	    -17.15448022	      0.49493779	    100.17969683	     44.22036766	      0.00000000	      0.00000000	      5.74129483	    -11.11053054	     13.75874676	     51.98516134	     46.12930975	      0.00000000	      0.00000000
      3.88742857	     -5.36075289	     -4.73221029	      6.65612249	      0.81611442	      0.91501810	      0.44693378	      0.09159255	      3.39153598	    -17.15704321	     13.48764103	     13.48764103	     19.83696081	      0.28935342	     -0.96351621	     30.47985509	     -4.33931959	     -3.96836492	     18.88024460	     18.88024460	      0.68831479	    -10.23273402	      0.95609048	     -6.77769833	      4.58523700	      3.79398308	     62.61009263	    -17.03577208	      0.60992921	     99.89857824	     44.22515334	      0.00000000	      0.00000000	      5.90475982	    -11.01634811	     13.72063169	     52.11653871	     46.13627385	      0.00000000	      0.00000000
      3.89928571	     -5.47125438	     -4.71919951	      6.47252152	      0.81749603	      0.91404362	      0.44531541	      0.23800005	      3.09249964	    -16.90641694	     14.72575475	     14.72575475	     20.23400717	     -0.08280434	     -1.07018524	     30.66545920	     -4.32436593	     -3.70478003	     20.09939012	     20.09939012	      0.52259170	    -11.14349453	      0.70658437	     -6.48684623	      4.43580286	      3.97277105	     61.37612870	    -17.10929027	      0.27927081	     99.43481836	     44.25860538	      0.00000000	      0.00000000	      6.09120176	    -10.92391496	     13.56539019	     52.48898688	     46.15780057	      0.00000000	      0.00000000
      3.91114286	     -5.43046338	     -4.60035988	      6.25527668	      0.81887825	      0.91374438	      0.44358641	      0.29810262	      2.66416138	    -16.58760618	     16.10661135	     16.10661135	     20.48288112	     -0.54412746	     -1.19052006	     30.50867501	     -4.22734575	     -3.53887880	     21.04391208	     21.04391208	      0.56536528	    -11.93118411	      0.54198204	     -6.42466299	      4.21703865	      4.03224920	     59.98739444	    -16.94656329	     -0.01340112	     99.07248090	     44.28748588	      0.00000000	      0.00000000	      6.40803252	    -10.82561624	     13.46090880	     52.86103980	     46.17592009	      0.00000000	      0.00000000
      3.92300000	     -5.36123192	     -4.44358125	      6.02375643	      0.82014170	      0.91383010	      0.44176630	      0.52084364	      2.13865684	    -16.21189536	     17.82159571	     17.82159571	     20.59052861	     -1.16167056	     -1.45925119	     30.26775505	     -4.08137359	     -3.35008170	     21.90826107	     21.90826107	      0.82654265	    -12.68720083	      0.47772073	     -6.42108653	      3.96094591	      4.08933823	     58.43866989	    -16.71990718	     -0.36877824	     98.66691015	     44.32243907	      0.00000000	      0.00000000	      6.83474375	    -10.71836258	     13.41573987	     53.25993925	     46.19048510	      0.00000000	      0.00000000
      3.93485714	     -5.27137849	     -4.26293476	      5.78341225	      0.82128385	      0.91426158	      0.43982417	      0.93583436	      1.51556110	    -15.85109522	     19.90493928	     19.90493928	     20.51121081	     -1.85716145	     -1.96634557	     29.93514015	     -3.90945814	     -3.23081614	     22.65898442	     22.65898442	      1.28992308	    -13.29925859	      0.43742269	     -6.46249539	      3.71258629	      4.11288747	     56.79319198	    -16.51041398	     -0.57515861	     98.16235557	     44.35066875	      0.00000000	      0.00000000	      7.39218177	    -10.59572040	     13.42954173	     53.63331083	     46.20005433	      0.00000000	      0.00000000
      3.94671429	     -4.81703529	     -4.27240778	      5.61915411	      0.82266762	      0.91571322	      0.43778932	      0.80247426	      1.17079410	    -15.66898572	     21.62431968	     21.62431968	     20.13703155	     -2.24649167	     -2.26449827	     29.08693108	     -3.93997159	     -3.03319191	     23.17006898	     23.17006898	      1.89591337	    -13.67196931	      0.26625140	     -6.89878903	      3.77238612	      3.97423720	     54.98661458	    -16.15206233	     -0.38675436	     97.67889345	     44.35563321	      0.00000000	      0.00000000	      8.06337115	    -10.42125375	     13.43427398	     53.93963747	     46.20945594	      0.00000000	      0.00000000
      3.95857143	     -5.03235676	     -3.78179907	      5.24620974	      0.82321672	      0.91608164	      0.43562712	      2.34008656	     -0.04774153	    -15.06353846	     25.13470742	     25.13470742	     19.70982990	     -3.54641891	     -3.48299741	     28.86217300	     -3.41407325	     -3.19963603	     23.58075149	     23.58075149	      2.48171216	    -14.28898185	      0.45290602	     -6.64124115	      3.16272025	      4.14109758	     53.14388993	    -16.06872325	     -0.78974693	     96.78392658	     44.40043685	      0.00000000	      0.00000000	      8.78044206	    -10.30589446	     13.55180516	     54.50512796	     46.21345701	      0.00000000	      0.00000000
      3.97042857	     -4.86735133	     -3.49203063	      4.95407626	      0.82403916	      0.91737195	      0.43338367	      3.26426134	     -0.95797598	    -14.64251659	     28.16018953	     28.16018953	     18.82458879	     -4.52719805	     -4.55459941	     28.13089802	     -3.09638348	     -3.28457438	     23.78179062	     23.78179062	      3.15135516	    -14.70497194	      0.61669621	     -6.78891385	      2.81829910	      4.14297308	     51.14745213	    -15.80011953	     -0.93658069	     95.89453598	     44.43387195	      0.00000000	      0.00000000	      9.59683046	    -10.17751873	     13.71391174	     55.07721972	     46.21457319	      0.00000000	      0.00000000
      3.98228571	     -4.73464794	     -3.22833337	      4.70238255	      0.82469209	      0.91872179	      0.43104923	      4.23324435	     -1.79973152	    -14.17391723	     30.91815944	     30.91815944	     15.97869361	     -6.66754285	    -10.21435738	     27.41459300	     -2.72950834	     -3.19565476	     23.95733282	     23.95733282	      4.40278892	    -14.97287090	      2.32926451	     -6.88947055	      2.55674608	      4.14352772	     49.08217733	    -15.08029407	     -2.02591014	     94.40273696	     44.56729167	      0.00000000	      0.00000000	     10.41773200	    -10.55603759	     15.31572522	     56.46336549	     46.11916064	      0.00000000	      0.00000000
